<svg width="116" height="116" viewBox="0 0 116 116" fill="none" xmlns="http://www.w3.org/2000/svg">
<g filter="url(#filter0_d_45_8)">
<path d="M58 69C70.7025 69 81 58.7025 81 46C81 33.2975 70.7025 23 58 23C45.2975 23 35 33.2975 35 46C35 58.7025 45.2975 69 58 69Z" fill="url(#paint0_linear_45_8)"/>
</g>
<path d="M53.0459 40.8833H67.4619L63.8579 48.8121H54.4875L53.0459 40.8833Z" stroke="white" stroke-width="1.5" stroke-linecap="round" stroke-linejoin="round"/>
<path d="M54.4887 48.812H53.2633C52.6867 48.812 52.1821 49.3166 52.1821 49.8932C52.1821 50.4698 52.6867 50.9744 53.2633 50.9744H66.7422" stroke="white" stroke-width="1.5" stroke-linecap="round" stroke-linejoin="round"/>
<path d="M49.4416 40.8831C50.2378 40.8831 50.8832 40.2376 50.8832 39.4415C50.8832 38.6453 50.2378 37.9999 49.4416 37.9999C48.6454 37.9999 48 38.6453 48 39.4415C48 40.2376 48.6454 40.8831 49.4416 40.8831Z" stroke="white" stroke-width="1.5" stroke-linecap="round" stroke-linejoin="round"/>
<path d="M52.3254 54.5785C53.1216 54.5785 53.767 53.9331 53.767 53.1369C53.767 52.3407 53.1216 51.6953 52.3254 51.6953C51.5292 51.6953 50.8838 52.3407 50.8838 53.1369C50.8838 53.9331 51.5292 54.5785 52.3254 54.5785Z" stroke="white" stroke-width="1.5" stroke-linecap="round" stroke-linejoin="round"/>
<path d="M65.299 54.5785C66.0952 54.5785 66.7406 53.9331 66.7406 53.1369C66.7406 52.3407 66.0952 51.6953 65.299 51.6953C64.5028 51.6953 63.8574 52.3407 63.8574 53.1369C63.8574 53.9331 64.5028 54.5785 65.299 54.5785Z" stroke="white" stroke-width="1.5" stroke-linecap="round" stroke-linejoin="round"/>
<path d="M50.8838 39.4419C52.3254 39.4419 53.0462 39.9465 53.0462 40.8835" stroke="white" stroke-width="1.5" stroke-linecap="round" stroke-linejoin="round"/>
<path d="M53.7656 43.7667H66.0192" stroke="white" stroke-width="1.5" stroke-linecap="round" stroke-linejoin="round"/>
<defs>
<filter id="filter0_d_45_8" x="0" y="0" width="116" height="116" filterUnits="userSpaceOnUse" color-interpolation-filters="sRGB">
<feFlood flood-opacity="0" result="BackgroundImageFix"/>
<feColorMatrix in="SourceAlpha" type="matrix" values="0 0 0 0 0 0 0 0 0 0 0 0 0 0 0 0 0 0 127 0" result="hardAlpha"/>
<feOffset dy="12"/>
<feGaussianBlur stdDeviation="17.5"/>
<feColorMatrix type="matrix" values="0 0 0 0 0.629167 0 0 0 0 0.47377 0 0 0 0 0 0 0 0 0.2 0"/>
<feBlend mode="multiply" in2="BackgroundImageFix" result="effect1_dropShadow_45_8"/>
<feBlend mode="normal" in="SourceGraphic" in2="effect1_dropShadow_45_8" result="shape"/>
</filter>
<linearGradient id="paint0_linear_45_8" x1="80.402" y1="24.1125" x2="28.7583" y2="39.334" gradientUnits="userSpaceOnUse">
<stop stop-color="#FFC000"/>
<stop offset="1" stop-color="#FF8A00"/>
</linearGradient>
</defs>
</svg>
