<svg width="21" height="21" viewBox="0 0 21 21" fill="none" xmlns="http://www.w3.org/2000/svg">
<path d="M10.8606 21C16.4605 21 21 16.299 21 10.5C21 4.70101 16.4605 0 10.8606 0C5.26077 0 0.721191 4.70101 0.721191 10.5C0.721191 16.299 5.26077 21 10.8606 21Z" fill="#F53E6A"/>
<path fill-rule="evenodd" clip-rule="evenodd" d="M11.1347 4.71777C8.20702 4.71777 5.8252 7.1843 5.8252 10.2161C5.8252 13.2479 8.20702 15.7144 11.1347 15.7144C14.0624 15.7144 16.4442 13.2479 16.4442 10.2161C16.4442 7.1843 14.0624 4.71777 11.1347 4.71777ZM14.6452 7.2533C15.2768 8.05246 15.6593 9.07033 15.6693 10.1788C15.5198 10.1461 14.0204 9.83114 12.5114 10.0277C12.3882 9.71636 12.272 9.44251 12.1128 9.10505C13.7896 8.3961 14.5496 7.38723 14.6452 7.2533ZM11.7643 8.40674C13.3769 7.7808 14.0596 6.83059 14.1412 6.71027C13.0258 5.68557 11.5103 5.2984 10.0721 5.65741C10.1974 5.83123 11.0211 6.99279 11.7643 8.40674ZM9.20655 5.97295C9.32612 6.14276 10.1365 7.30576 10.888 8.68905C8.76659 9.27243 6.89814 9.26402 6.69531 9.26125C6.98939 7.80391 7.93778 6.59269 9.20655 5.97295ZM6.60191 10.0797C6.60051 10.1274 6.59959 10.1752 6.59959 10.2232C6.59959 11.4294 7.04114 12.5307 7.76548 13.3633C8.50061 12.0602 9.99058 10.6866 11.6305 10.2083C11.5167 9.94152 11.3927 9.67443 11.2628 9.41131C8.99803 10.1132 6.80033 10.0839 6.60191 10.0797ZM8.35089 13.9283C8.82461 12.9255 10.1103 11.631 11.9386 10.9851C12.5753 12.6985 12.8387 14.1345 12.9061 14.5465C11.4479 15.1897 9.69438 15.0133 8.35089 13.9283ZM12.7876 10.768C13.3808 12.456 13.6222 13.8308 13.6687 14.1165C14.6861 13.4041 15.4104 12.2755 15.6125 10.9688C15.4574 10.9181 14.2088 10.5324 12.7876 10.768Z" fill="white"/>
<mask id="mask0_3_331" style="mask-type:alpha" maskUnits="userSpaceOnUse" x="5" y="4" width="12" height="12">
<path fill-rule="evenodd" clip-rule="evenodd" d="M11.1347 4.71777C8.20702 4.71777 5.8252 7.1843 5.8252 10.2161C5.8252 13.2479 8.20702 15.7144 11.1347 15.7144C14.0624 15.7144 16.4442 13.2479 16.4442 10.2161C16.4442 7.1843 14.0624 4.71777 11.1347 4.71777ZM14.6452 7.2533C15.2768 8.05246 15.6593 9.07033 15.6693 10.1788C15.5198 10.1461 14.0204 9.83114 12.5114 10.0277C12.3882 9.71636 12.272 9.44251 12.1128 9.10505C13.7896 8.3961 14.5496 7.38723 14.6452 7.2533ZM11.7643 8.40674C13.3769 7.7808 14.0596 6.83059 14.1412 6.71027C13.0258 5.68557 11.5103 5.2984 10.0721 5.65741C10.1974 5.83123 11.0211 6.99279 11.7643 8.40674ZM9.20655 5.97295C9.32612 6.14276 10.1365 7.30576 10.888 8.68905C8.76659 9.27243 6.89814 9.26402 6.69531 9.26125C6.98939 7.80391 7.93778 6.59269 9.20655 5.97295ZM6.60191 10.0797C6.60051 10.1274 6.59959 10.1752 6.59959 10.2232C6.59959 11.4294 7.04114 12.5307 7.76548 13.3633C8.50061 12.0602 9.99058 10.6866 11.6305 10.2083C11.5167 9.94152 11.3927 9.67443 11.2628 9.41131C8.99803 10.1132 6.80033 10.0839 6.60191 10.0797ZM8.35089 13.9283C8.82461 12.9255 10.1103 11.631 11.9386 10.9851C12.5753 12.6985 12.8387 14.1345 12.9061 14.5465C11.4479 15.1897 9.69438 15.0133 8.35089 13.9283ZM12.7876 10.768C13.3808 12.456 13.6222 13.8308 13.6687 14.1165C14.6861 13.4041 15.4104 12.2755 15.6125 10.9688C15.4574 10.9181 14.2088 10.5324 12.7876 10.768Z" fill="white"/>
</mask>
<g mask="url(#mask0_3_331)">
</g>
</svg>
