<svg width="108" height="97" viewBox="0 0 108 97" fill="none" xmlns="http://www.w3.org/2000/svg">
<rect width="85" height="85" rx="42.5" fill="url(#paint0_linear_3_364)"/>
<path d="M52.3364 35.0698V31.6851V12.3774C52.3364 10.1784 54.1177 8.39005 56.3222 8.39005H101.785C103.987 8.39005 105.771 10.178 105.771 12.3773V12.3774V53.5932C105.771 55.7936 103.987 57.579 101.785 57.579H88.7514L95.917 90.1141L52.3364 35.0698ZM52.3364 35.0698L54.5364 32.4976L56.5144 30.1849L56.5149 30.1843C57.2614 29.3105 58.2498 28.7642 59.3212 28.5335L60.3082 28.3211V27.3115V16.3637M52.3364 35.0698L60.3082 16.3637M60.3082 16.3637H97.7986V49.6067H60.3084V44.8734V41.4884L58.1084 44.061L56.8772 45.5007L60.3082 16.3637ZM69.5319 57.579L62.3652 90.1161L62.3652 90.1163C61.8807 92.3179 63.2724 94.4947 65.4744 94.9802L65.4753 94.9804C67.6582 95.4599 69.8529 94.0785 70.335 91.8722C70.3351 91.8718 70.3352 91.8714 70.3353 91.871L77.8878 57.5792H80.3949L87.9479 91.8734L87.9479 91.8737C88.3679 93.7786 90.0562 95.0764 91.9303 95.0748L69.5319 57.579ZM69.5319 57.579H56.3222C54.1187 57.579 52.3364 55.7932 52.3364 53.5932V48.5036V47.365L53.4701 47.2591C54.7932 47.1354 56.0129 46.5087 56.8764 45.5017L69.5319 57.579ZM92.8114 94.9802L92.8109 94.9803C92.513 95.0458 92.2169 95.0747 91.9318 95.0748L92.8114 94.9802ZM92.8114 94.9802C95.0126 94.4949 96.4052 92.3188 95.9174 90.1161L92.8114 94.9802Z" stroke="#5C5C5C" stroke-width="2.5"/>
<path d="M80.0537 25.6225C79.8381 25.079 79.2268 24.8122 78.6837 25.0273L62.5652 30.7165C61.0859 29.5711 58.9516 29.7758 57.718 31.2105L52.6034 37.1833L48.0684 33.2959C48.0982 33.6169 48.1662 33.9288 48.1662 34.2582V42.6974L50.6893 44.8593C52.1867 46.1416 54.4265 45.9435 55.6785 44.4752L61.7673 37.3551L66.6779 34.4823L79.6013 26.9211C80.0482 26.6635 80.2462 26.1131 80.0537 25.6225Z" fill="#5C5C5C"/>
<path d="M38.2106 27.1368H35.1732C32.8476 27.1368 30.8026 28.2672 29.5027 29.9901L20.1792 38.5741C18.7264 39.8682 18.5946 42.1097 19.9029 43.5712L27.5096 52.0617C28.8065 53.5138 31.0514 53.6422 32.504 52.3372C33.9604 51.0319 34.0834 48.7962 32.7784 47.3416L27.5352 41.4866L34.9825 34.8224L30.6451 40.7154L34.888 45.4525C37.2325 48.0724 37.0115 52.0979 34.3927 54.4442C32.6048 56.047 30.1649 56.4231 28.0496 55.6839C28.0496 55.6839 28.0825 72.0514 28.0825 89.5799C28.0825 91.9244 29.9828 93.8249 32.3275 93.8249C34.6697 93.8249 36.5725 91.9244 36.5725 89.5799C36.5725 72.0568 36.5725 82.0565 36.5725 64.2803H39.404C39.404 82.0435 39.404 72.0514 39.404 89.5799C39.404 90.8039 39.0627 91.9373 38.5186 92.9406C39.2309 93.4885 40.1172 93.8249 41.0833 93.8249C43.4292 93.8249 45.3295 91.9244 45.3295 89.5799C45.3295 72.0568 45.3349 79.4026 45.3349 34.259C45.3353 30.3254 42.1465 27.1368 38.2106 27.1368Z" fill="#5C5C5C"/>
<path d="M32.91 24.5887C34.0451 25.1787 35.3194 25.5448 36.6883 25.5448C38.0606 25.5448 39.3349 25.1787 40.4733 24.5877C43.1303 23.2111 44.9617 20.4706 44.9617 17.2721C44.9617 12.7029 41.2576 9 36.6881 9C32.1193 9 28.416 12.7029 28.416 17.2721C28.4162 20.4724 30.2496 23.2139 32.91 24.5887Z" fill="#5C5C5C"/>
<defs>
<linearGradient id="paint0_linear_3_364" x1="83.895" y1="2.05562" x2="-11.5335" y2="30.1824" gradientUnits="userSpaceOnUse">
<stop stop-color="#FFC000"/>
<stop offset="1" stop-color="#FF8A00"/>
</linearGradient>
</defs>
</svg>
