<svg width="98" height="87" viewBox="0 0 98 87" fill="none" xmlns="http://www.w3.org/2000/svg">
<circle cx="39" cy="39" r="39" fill="url(#paint0_linear_3_495)" style="mix-blend-mode:multiply"/>
<path d="M54.8333 66.0006H36.1667V61.9173C36.1667 59.6621 34.3385 57.834 32.0833 57.834C29.8282 57.834 28 59.6621 28 61.9173V85.834C28 86.4783 28.5224 87.0006 29.1667 87.0006H45.5C47.4246 87.0091 48.9917 85.4558 49.0003 83.5313C49.0042 82.657 48.6793 81.8132 48.09 81.1673C49.3033 79.8484 49.3033 77.8196 48.09 76.5006C48.9678 75.5609 49.2389 74.2057 48.79 73.0006H54.8333C56.7664 73.0006 58.3333 71.4337 58.3333 69.5006C58.3333 67.5676 56.7664 66.0006 54.8333 66.0006ZM45.5 84.6673H40.8333C40.189 84.6673 39.6667 84.1449 39.6667 83.5006C39.6667 82.8563 40.189 82.334 40.8333 82.334H45.5C46.1443 82.334 46.6667 82.8563 46.6667 83.5006C46.6667 84.1449 46.1444 84.6673 45.5 84.6673ZM45.5 80.0006H40.8333C40.189 80.0006 39.6667 79.4783 39.6667 78.834C39.6667 78.1897 40.189 77.6673 40.8333 77.6673H45.5C46.1443 77.6673 46.6667 78.1897 46.6667 78.834C46.6667 79.4783 46.1444 80.0006 45.5 80.0006ZM45.5 75.334H40.8333C40.189 75.334 39.6667 74.8116 39.6667 74.1673C39.6667 73.523 40.189 73.0006 40.8333 73.0006H45.5C46.1443 73.0006 46.6667 73.523 46.6667 74.1673C46.6667 74.8116 46.1444 75.334 45.5 75.334ZM54.8333 70.6673H40.8333C38.9088 70.6588 37.3416 72.2121 37.333 74.1367C37.3291 75.011 37.654 75.8547 38.2433 76.5006C37.03 77.8196 37.03 79.8484 38.2433 81.1673C37.3656 82.107 37.0945 83.4623 37.5433 84.6673H30.3333V61.9173C30.3333 60.9509 31.1169 60.1673 32.0833 60.1673C33.0498 60.1673 33.8333 60.9509 33.8333 61.9173V67.1673C33.8333 67.8116 34.3557 68.334 35 68.334H54.8333C55.4776 68.334 56 68.8564 56 69.5006C56 70.1449 55.4778 70.6673 54.8333 70.6673Z" fill="white"/>
<path d="M96.8327 17H80.4994C78.5748 16.9916 77.0077 18.5448 76.9991 20.4694C76.9951 21.3437 77.32 22.1875 77.9094 22.8334C76.696 24.1523 76.696 26.1811 77.9094 27.5C77.0316 28.4398 76.7605 29.795 77.2094 31H71.166C69.233 31 67.666 32.567 67.666 34.5C67.666 36.4331 69.233 38 71.166 38H89.8327V42.0834C89.8327 44.3385 91.6609 46.1667 93.916 46.1667C96.1712 46.1667 97.9994 44.3385 97.9994 42.0834V18.1667C97.9994 17.5224 97.4771 17 96.8327 17ZM80.4994 19.3334H85.166C85.8103 19.3334 86.3327 19.8557 86.3327 20.5C86.3327 21.1443 85.8103 21.6667 85.166 21.6667H80.4994C79.8551 21.6667 79.3327 21.1443 79.3327 20.5C79.3327 19.8557 79.8551 19.3334 80.4994 19.3334ZM80.4994 24H85.166C85.8103 24 86.3327 24.5224 86.3327 25.1667C86.3327 25.811 85.8103 26.3334 85.166 26.3334H80.4994C79.8551 26.3334 79.3327 25.811 79.3327 25.1667C79.3327 24.5224 79.8551 24 80.4994 24ZM80.4994 28.6667H85.166C85.8103 28.6667 86.3327 29.1891 86.3327 29.8334C86.3327 30.4777 85.8103 31 85.166 31H80.4994C79.8551 31 79.3327 30.4777 79.3327 29.8334C79.3327 29.1891 79.8551 28.6667 80.4994 28.6667ZM95.666 42.0834C95.666 43.0498 94.8825 43.8334 93.916 43.8334C92.9496 43.8334 92.166 43.0498 92.166 42.0834V36.8334C92.166 36.1891 91.6436 35.6667 90.9994 35.6667H71.166C70.5217 35.6667 69.9993 35.1443 69.9993 34.5C69.9993 33.8557 70.5217 33.3334 71.166 33.3334H85.166C87.0906 33.3418 88.6577 31.7886 88.6663 29.864C88.6703 28.9897 88.3453 28.1459 87.756 27.5C88.9694 26.1811 88.9694 24.1523 87.756 22.8334C88.6338 21.8936 88.9049 20.5384 88.456 19.3334H95.666V42.0834Z" fill="white"/>
<path d="M63.0013 46.166C59.7797 46.166 57.168 48.7777 57.168 51.9993C57.1718 55.2193 59.7813 57.8289 63.0013 57.8327C66.2229 57.8327 68.8346 55.2209 68.8346 51.9993C68.8346 48.7777 66.2231 46.166 63.0013 46.166ZM63.0013 55.4993C61.0683 55.4993 59.5013 53.9324 59.5013 51.9993C59.5013 50.0663 61.0683 48.4993 63.0013 48.4993C64.9343 48.4993 66.5013 50.0663 66.5013 51.9993C66.5013 53.9324 64.9343 55.4993 63.0013 55.4993Z" fill="white"/>
<path d="M89.5291 51.2189L89.1791 50.8257C76.1674 36.3675 53.8985 35.195 39.4403 48.2069C38.522 49.0333 37.6479 49.9074 36.8215 50.8257L36.4715 51.2189C36.072 51.6625 36.072 52.3361 36.4715 52.7799L36.8215 53.1731C49.8333 67.6313 72.102 68.8038 86.5602 55.7919C87.4785 54.9655 88.3527 54.0914 89.1791 53.1731L89.5291 52.7799C89.9285 52.3363 89.9285 51.6627 89.5291 51.2189ZM38.9086 51.9994C43.0405 47.5632 48.3166 44.3532 54.1558 42.7232C49.0334 47.5798 48.8177 55.6692 53.6742 60.7917C53.8304 60.9565 53.991 61.1171 54.1558 61.2732C48.3169 59.6438 43.0408 56.4348 38.9086 51.9994ZM63.0003 62.4994C57.2014 62.4994 52.5003 57.7983 52.5003 51.9994C52.5003 46.2003 57.2012 41.4994 63.0003 41.4994C68.7963 41.5064 73.4933 46.2034 73.5003 51.9994C73.5003 57.7985 68.7993 62.4994 63.0003 62.4994ZM71.8448 61.2756C76.9672 56.4192 77.1829 48.3297 72.3263 43.2071C72.1701 43.0423 72.0096 42.8818 71.8448 42.7256C77.6838 44.355 82.9598 47.564 87.0919 51.9994C82.96 56.4357 77.6839 59.6456 71.8448 61.2756Z" fill="white"/>
<defs>
<linearGradient id="paint0_linear_3_495" x1="76.986" y1="1.88633" x2="-10.5837" y2="27.6968" gradientUnits="userSpaceOnUse">
<stop stop-color="#FF7E00"/>
<stop offset="1" stop-color="#FF6000"/>
</linearGradient>
</defs>
</svg>
