<svg width="88" height="86" viewBox="0 0 88 86" fill="none" xmlns="http://www.w3.org/2000/svg">
<circle cx="39" cy="39" r="39" fill="url(#paint0_linear_3_509)" style="mix-blend-mode:multiply"/>
<path d="M86.9818 77.0744L79.9525 67.9026C82.2303 67.2119 84.1978 65.7335 85.5135 63.7241C87.1689 60.8201 86.4203 57.2759 85.6961 53.8524C85.2581 52.0938 84.996 50.2947 84.914 48.4828C84.9957 46.6692 85.2577 44.8685 85.6961 43.1084C86.4157 39.6826 87.1689 36.1408 85.5135 33.2414C83.7993 30.2353 80.3476 29.1227 77.0092 28.0488C75.3473 27.584 73.7379 26.9443 72.2071 26.1401C70.818 25.2256 69.5283 24.1646 68.3592 22.9746C65.8825 20.6414 63.0743 18 59.5002 18C55.9261 18 53.1179 20.6414 50.64 22.9734C49.4714 24.1637 48.182 25.2251 46.7933 26.1401C45.2627 26.9427 43.6537 27.5808 41.9924 28.0441C38.654 29.118 35.2023 30.2306 33.488 33.2367C31.8327 36.1408 32.5812 39.685 33.3055 43.1084C33.7435 44.8686 34.0051 46.6692 34.0864 48.4828C34.0047 50.2963 33.7428 52.097 33.3044 53.8571C32.5847 57.2829 31.8315 60.8248 33.4869 63.7241C34.8044 65.7342 36.7741 67.2122 39.0537 67.9015L32.0187 77.0732C31.6271 77.5844 31.7179 78.321 32.2217 78.7184C32.4637 78.9094 32.7704 78.9948 33.0745 78.9561L41.334 77.9092L43.3728 85.15C43.4923 85.5744 43.8365 85.8948 44.2635 85.9789C44.3358 85.9928 44.4093 86 44.483 86C44.8396 86.0003 45.1765 85.8332 45.3956 85.5474L52.7725 75.9172C54.5878 77.7109 56.9724 78.7914 59.5002 78.9655C62.028 78.7914 64.4126 77.7109 66.2279 75.9172L73.6049 85.5439C73.8232 85.831 74.1601 85.9994 74.5175 86C74.5911 86 74.6646 85.9928 74.7369 85.9789C75.1639 85.8948 75.5082 85.5744 75.6276 85.15L77.6665 77.9103L85.9259 78.9573C86.559 79.0379 87.1366 78.5824 87.216 77.94C87.2541 77.6313 87.1699 77.32 86.9818 77.0744ZM44.9681 82.2846L43.2827 76.2983C43.1261 75.743 42.5941 75.3863 42.0294 75.4577L35.5604 76.2783L41.3582 68.7139L41.997 68.9214C43.6567 69.385 45.2642 70.0231 46.7933 70.8254C48.1824 71.7399 49.4722 72.801 50.6412 73.991L51.0386 74.3638L44.9681 82.2846ZM59.5002 76.6207C56.8318 76.6207 54.5873 74.5103 52.2099 72.2734C50.9166 70.9619 49.4879 69.7958 47.9485 68.7948C46.2736 67.905 44.5105 67.1976 42.689 66.6845C39.6359 65.7008 36.7514 64.7723 35.4853 62.5517C34.277 60.4308 34.9008 57.4752 35.5627 54.3448C36.0391 52.4251 36.3186 50.4608 36.3968 48.4828C36.3191 46.5048 36.04 44.5404 35.5639 42.6207C34.902 39.4915 34.2782 36.5359 35.4865 34.4138C36.7572 32.1932 39.637 31.2647 42.6901 30.281C44.5114 29.7678 46.2739 29.0604 47.9485 28.1707C49.4875 27.1697 50.9158 26.0035 52.2088 24.6921C54.5873 22.4552 56.8318 20.3448 59.5002 20.3448C62.1687 20.3448 64.4132 22.4552 66.7905 24.6921C68.0839 26.0036 69.5125 27.1697 71.0519 28.1707C72.7268 29.0606 74.4899 29.768 76.3114 30.281C79.3646 31.2647 82.249 32.1932 83.5151 34.4138C84.7234 36.5347 84.0996 39.4903 83.4377 42.6207C82.9613 44.5404 82.6818 46.5048 82.6037 48.4828C82.6813 50.4608 82.9605 52.4251 83.4365 54.3448C84.0985 57.474 84.7222 60.4297 83.5139 62.5517C82.2432 64.7723 79.3634 65.7008 76.3103 66.6845C74.489 67.1977 72.7265 67.9051 71.0519 68.7948C69.513 69.7958 68.0846 70.962 66.7917 72.2734C64.4132 74.5103 62.1687 76.6207 59.5002 76.6207ZM76.9768 75.4577C76.4121 75.3863 75.8801 75.743 75.7235 76.2983L74.0323 82.2846L67.963 74.365L68.3604 73.9921C69.529 72.8018 70.8184 71.7404 72.2071 70.8254C73.7377 70.0228 75.3467 69.3847 77.008 68.9214L77.6468 68.7139L83.4458 76.2783L76.9768 75.4577Z" fill="white"/>
<path d="M59.5001 27.3789C48.0164 27.3789 38.707 36.8272 38.707 48.4824C38.707 60.1375 48.0164 69.5858 59.5001 69.5858C70.9838 69.5858 80.2932 60.1375 80.2932 48.4824C80.2799 36.8328 70.9784 27.3925 59.5001 27.3789ZM59.5001 67.241C49.2925 67.241 41.0174 58.8424 41.0174 48.4824C41.0174 38.1223 49.2925 29.7237 59.5001 29.7237C69.7078 29.7237 77.9829 38.1223 77.9829 48.4824C77.9708 58.8374 69.7029 67.2287 59.5001 67.241Z" fill="white"/>
<path d="M72.8281 43.5856C72.3934 42.9796 71.6998 42.621 70.9613 42.6207H63.8893L61.6945 35.7891C61.2961 34.5588 59.9905 33.8893 58.7783 34.2936C58.081 34.5262 57.534 35.0814 57.3049 35.7891L55.1158 42.6207H48.0381C46.762 42.6201 45.7271 43.6693 45.7266 44.9644C45.7261 45.7147 46.0796 46.4198 46.6773 46.8613L52.4023 51.082L50.2156 57.9137C49.8211 59.1453 50.4852 60.4682 51.6985 60.8685C52.4022 61.1006 53.1727 60.9766 53.7712 60.5352L59.4997 56.3157L65.2259 60.5364C66.0325 61.1446 67.1362 61.1446 67.9428 60.5364C68.7614 59.9459 69.1022 58.8808 68.7815 57.9149L66.5948 51.082L72.3198 46.8613C73.3515 46.0993 73.5791 44.6326 72.8281 43.5856ZM64.557 49.6869C64.1519 49.9857 63.9825 50.5155 64.1377 50.9988L66.5844 58.6406L60.1789 53.9181C59.7742 53.6199 59.2263 53.6199 58.8216 53.9181L52.4162 58.6406L54.8617 50.9988C55.0163 50.5158 54.8471 49.9867 54.4423 49.688L48.0381 44.9655H55.9545C56.4549 44.9655 56.8984 44.6384 57.053 44.1554L59.4997 36.5136L61.9463 44.1542C62.101 44.6373 62.5444 44.9644 63.0449 44.9644L70.9613 44.9655L64.557 49.6869Z" fill="white"/>
<defs>
<linearGradient id="paint0_linear_3_509" x1="76.986" y1="1.88633" x2="-10.5837" y2="27.6968" gradientUnits="userSpaceOnUse">
<stop stop-color="#FF7E00"/>
<stop offset="1" stop-color="#FF6000"/>
</linearGradient>
</defs>
</svg>
