<svg width="103" height="90" viewBox="0 0 103 90" fill="none" xmlns="http://www.w3.org/2000/svg">
<circle cx="39" cy="39" r="39" fill="url(#paint0_linear_3_482)" style="mix-blend-mode:multiply"/>
<path d="M37.4739 20.3226L65.8409 24.1226C65.8939 24.129 65.947 24.1327 66 24.1327C66.053 24.1327 66.1061 24.1288 66.1591 24.1226L93.1336 20.5087V24.9066C92.3604 25.7996 90.6669 28.0277 90.6669 30.4661C90.6669 33.2541 92.8796 34.2661 94.3669 34.2661C95.8543 34.2661 98.067 33.2541 98.067 30.4661C98.067 28.0277 96.3736 25.7996 95.6002 24.9066V19.066C95.6002 18.8989 95.5657 18.7405 95.5077 18.5935C95.4868 18.5416 95.4509 18.5011 95.4239 18.453C95.3758 18.3644 95.3277 18.2769 95.2612 18.2034C95.218 18.1565 95.1662 18.1249 95.1169 18.0869C95.0467 18.0286 94.9776 17.9729 94.8962 17.9324C94.8358 17.902 94.7716 17.8894 94.7063 17.8704C94.6459 17.8514 94.5915 17.8184 94.5262 17.8095L66.1593 14.0095C66.0532 13.9968 65.9471 13.9968 65.841 14.0095L37.4741 17.8095C36.8598 17.8919 36.3999 18.4301 36.3999 19.066C36.3996 19.7019 36.8597 20.2403 37.4739 20.3226ZM95.6001 30.4661C95.6001 31.477 94.9328 31.7137 94.3668 31.7327C93.8007 31.7137 93.1335 31.4768 93.1335 30.4661C93.1335 29.4147 93.7625 28.2418 94.3668 27.3767C94.9711 28.2419 95.6001 29.4149 95.6001 30.4661ZM65.9999 16.5429L84.8317 19.066L65.9999 21.5893L47.168 19.066L65.9999 16.5429Z" fill="white"/>
<path d="M73.3997 51.9996C75.891 51.9996 77.9372 50.0857 78.2653 47.617L82.7731 44.1463C83.3183 43.727 83.4293 42.9328 83.0198 42.3729C82.6115 41.813 81.8383 41.6978 81.2931 42.1196L78.1494 44.5415C77.6795 42.9974 76.2907 41.8663 74.633 41.8663H69.6997C67.6598 41.8663 65.9997 43.5713 65.9997 45.6663C65.9997 43.5713 64.3396 41.8663 62.2996 41.8663H57.3663C55.7087 41.8663 54.32 42.9974 53.85 44.5415L50.7063 42.1196C50.1624 41.7002 49.3879 41.8142 48.9795 42.3729C48.5701 42.9328 48.6811 43.727 49.2263 44.1463L53.7341 47.617C54.0622 50.0857 56.107 51.9996 58.5996 51.9996H61.0664C63.7872 51.9996 65.9997 49.7272 65.9997 46.933C65.9997 49.7273 68.2123 51.9996 70.933 51.9996H73.3997ZM63.5329 46.933C63.5329 48.3301 62.4254 49.4664 61.0662 49.4664H58.5995C57.2391 49.4664 56.1327 48.3302 56.1327 46.933V45.6663C56.1327 44.9684 56.6853 44.3997 57.366 44.3997H62.2994C62.9801 44.3997 63.5327 44.9684 63.5327 45.6663V46.933H63.5329ZM68.4664 46.933V45.6663C68.4664 44.9684 69.019 44.3997 69.6997 44.3997H74.633C75.3138 44.3997 75.8663 44.9684 75.8663 45.6663V46.933C75.8663 48.3301 74.7601 49.4664 73.3996 49.4664H70.9329C69.5727 49.4662 68.4664 48.3301 68.4664 46.933Z" fill="white"/>
<path d="M85.6831 78.2893C85.6596 78.1994 85.6226 78.1183 85.5819 78.0348C85.5585 77.9904 85.5535 77.9398 85.5264 77.8967C85.5128 77.8777 85.4931 77.8676 85.4795 77.8486C85.4278 77.779 85.3636 77.722 85.297 77.6637C85.2377 77.608 85.1798 77.5535 85.1095 77.5129C85.0886 77.4989 85.0763 77.4787 85.0527 77.466L80.1194 74.9339C79.7222 74.7299 79.2511 74.7604 78.8837 75.0124L71.4823 80.0791C71.1395 80.3134 70.9335 80.7099 70.9335 81.133V85.6246C70.1997 86.2275 68.3978 87.4663 66.0002 87.4663C63.626 87.4663 61.8069 86.2212 61.0669 85.6207V81.1328C61.0669 80.7098 60.8609 80.3133 60.5181 80.0789L53.118 75.0123C52.7505 74.7602 52.2793 74.7298 51.8823 74.9337L46.9489 77.4658C46.9267 77.4772 46.9144 77.4974 46.8947 77.5102C46.8207 77.5532 46.759 77.6102 46.6962 77.6698C46.6344 77.7256 46.5729 77.7787 46.5247 77.8446C46.51 77.865 46.4877 77.8762 46.4742 77.8966C46.4445 77.9421 46.4396 77.9941 46.4162 78.0422C46.3779 78.1221 46.3409 78.1992 46.3188 78.2853C46.299 78.3652 46.2941 78.4412 46.2891 78.5222C46.2842 78.6021 46.2805 78.6793 46.2904 78.7603C46.3003 78.849 46.3288 78.93 46.3571 79.0137C46.3743 79.0643 46.3731 79.1176 46.3965 79.1657C46.4077 79.1886 46.4286 79.2024 46.4409 79.2241C46.4817 79.2975 46.5372 79.3596 46.5938 79.4242C46.6493 79.4875 46.7011 79.5508 46.7652 79.6015C46.785 79.6167 46.796 79.6395 46.8158 79.6535L54.2159 84.7202C54.4268 84.8646 54.6648 84.933 54.8991 84.933C55.2974 84.933 55.6897 84.7354 55.9264 84.3694C56.3051 83.7868 56.1522 83 55.5848 82.6125L49.952 78.7568L52.3448 77.5281L58.6003 81.8108V86.1998C58.6003 86.5354 58.7298 86.8584 58.9616 87.0953C59.0775 87.2144 61.8378 89.9998 66.0003 89.9998C70.1629 89.9998 72.9231 87.2144 73.0391 87.0953C73.2697 86.8584 73.4004 86.5354 73.4004 86.1998V81.8108L79.6572 77.5281L82.0486 78.7556L76.4159 82.6126C75.8486 83.0002 75.6957 83.7868 76.0742 84.3695C76.311 84.7356 76.7033 84.9332 77.1016 84.9332C77.3359 84.9332 77.5739 84.8647 77.7848 84.7203L85.1848 79.6536C85.2046 79.6397 85.2145 79.6182 85.233 79.6042C85.3021 79.5511 85.3563 79.4852 85.4142 79.4181C85.466 79.3547 85.519 79.2977 85.5585 79.2267C85.5707 79.2039 85.593 79.1901 85.6041 79.1659C85.63 79.1139 85.63 79.0583 85.6473 79.005C85.6732 78.9251 85.7004 78.8491 85.7102 78.7655C85.7213 78.6794 85.7176 78.5984 85.7115 78.5135C85.7065 78.4376 85.7027 78.3653 85.6831 78.2893Z" fill="white"/>
<path d="M90.7547 74.0043C90.9484 74.4983 91.4109 74.7998 91.9004 74.7998C92.0533 74.7998 92.2075 74.7707 92.358 74.7087C92.9907 74.4502 93.2977 73.7131 93.0462 73.0632C93.0215 73.0024 90.6671 66.8705 90.6671 60.8665V50.733C90.6671 39.9409 85.2811 37.0516 85.0517 36.9339C84.6706 36.7375 84.2155 36.7565 83.853 36.9883C83.4892 37.2202 83.2672 37.6268 83.2672 38.0663V43.1329C83.2672 47.9235 79.6979 57.7644 78.4634 60.3002C77.3571 62.5738 71.5035 69.7332 66.0005 69.7332C60.4974 69.7332 54.6438 62.574 53.5363 60.3002C52.303 57.7643 48.7336 47.9235 48.7336 43.1329V38.0663C48.7336 37.6268 48.5116 37.2202 48.1478 36.9883C47.784 36.7565 47.3301 36.7375 46.9491 36.9339C46.7197 37.0517 41.3337 39.9409 41.3337 50.733V60.8665C41.3337 66.8705 38.9793 73.0025 38.9546 73.0632C38.7029 73.7131 39.0101 74.4502 39.6428 74.7087C40.2731 74.9671 40.9933 74.653 41.2461 74.0043C41.3497 73.7358 43.8003 67.3694 43.8003 60.8663V50.7329C43.8003 45.5964 45.104 42.6122 46.267 40.9706V43.1328C46.267 48.5694 50.1508 59.0105 51.3299 61.4325C52.8308 64.5155 59.3997 72.2664 66.0005 72.2664C72.6013 72.2664 79.1701 64.5155 80.6698 61.4325C81.85 59.0105 85.7339 48.5694 85.7339 43.1328V40.9732C86.8994 42.6161 88.2006 45.5991 88.2006 50.7329V60.8663C88.2004 67.3694 90.651 73.7358 90.7547 74.0043Z" fill="white"/>
<path d="M68.842 59.957C68.8025 59.9937 67.8726 60.8665 65.9991 60.8665C64.1529 60.8665 63.2228 60.0191 63.1588 59.9584C62.6791 59.4758 61.9057 59.4795 61.4272 59.971C60.9449 60.4663 60.9449 61.2668 61.4272 61.762C61.5899 61.9292 63.1045 63.3999 65.9991 63.3999C68.8938 63.3999 70.4084 61.9293 70.5711 61.762C71.0472 61.2731 71.0459 60.4904 70.5785 59.9937C70.1086 59.4973 69.3341 59.4833 68.842 59.957Z" fill="white"/>
<path d="M102.937 88.3328C102.828 87.9958 100.137 80.0423 89.7325 77.371C89.0715 77.1987 88.403 77.6142 88.2378 78.2919C88.0726 78.9709 88.4745 79.6586 89.1356 79.8284C98.1724 82.149 100.505 88.8548 100.598 89.1334C100.77 89.6643 101.251 89.9999 101.768 89.9999C101.896 89.9999 102.028 89.9796 102.157 89.9353C102.804 89.7134 103.153 88.9966 102.937 88.3328Z" fill="white"/>
<path d="M85.734 32.9998V24.1331C85.734 23.4339 85.1827 22.8665 84.5007 22.8665C83.8186 22.8665 83.2674 23.4339 83.2674 24.1331V32.1802C81.2275 33.0682 74.7721 35.5332 66.0005 35.5332C57.229 35.5332 50.7736 33.0682 48.7337 32.1802V24.1331C48.7337 23.4339 48.1824 22.8665 47.5004 22.8665C46.8183 22.8665 46.2671 23.4339 46.2671 24.1331V32.9998C46.2671 33.4798 46.531 33.9182 46.9491 34.1334C47.2623 34.293 54.739 38.0664 66.0005 38.0664C77.2621 38.0664 84.7387 34.293 85.0519 34.1334C85.4701 33.9182 85.734 33.4798 85.734 32.9998Z" fill="white"/>
<path d="M42.268 77.371C31.8636 80.0425 29.1724 87.996 29.0638 88.3328C28.848 88.9964 29.1971 89.7134 29.8433 89.9352C29.9728 89.9795 30.1036 89.9997 30.2331 89.9997C30.7498 89.9997 31.2308 89.6641 31.4024 89.1333C31.4258 89.0637 33.7606 82.1653 42.8651 79.8283C43.5262 79.6586 43.9283 78.9707 43.7629 78.2918C43.5976 77.6142 42.9278 77.1987 42.268 77.371Z" fill="white"/>
<defs>
<linearGradient id="paint0_linear_3_482" x1="76.986" y1="1.88633" x2="-10.5837" y2="27.6968" gradientUnits="userSpaceOnUse">
<stop stop-color="#FF7E00"/>
<stop offset="1" stop-color="#FF6000"/>
</linearGradient>
</defs>
</svg>
