<svg width="518" height="356" viewBox="0 0 518 356" fill="none" xmlns="http://www.w3.org/2000/svg">
<g filter="url(#filter0_d_0_1)">
<rect x="35" y="23" width="448" height="286" rx="10" fill="url(#paint0_linear_0_1)"/>
</g>
<mask id="mask0_0_1" style="mask-type:alpha" maskUnits="userSpaceOnUse" x="35" y="23" width="448" height="286">
<rect x="35" y="23" width="448" height="286" rx="10" fill="url(#paint1_linear_0_1)"/>
</mask>
<g mask="url(#mask0_0_1)">
<path d="M160.003 191.708C92.5314 185.302 45.7098 224.075 35 238.757V473H519.449C524.134 393.584 500.975 254.774 370.851 254.774C208.197 254.774 244.342 199.717 160.003 191.708Z" fill="url(#paint2_linear_0_1)" style="mix-blend-mode:multiply"/>
</g>
<g opacity="0.7">
<circle cx="419" cy="138" r="21" fill="url(#paint3_linear_0_1)" style="mix-blend-mode:multiply"/>
</g>
<circle opacity="0.7" cx="392" cy="213" r="15" stroke="white" stroke-width="10"/>
<circle opacity="0.7" cx="435" cy="192" r="6" stroke="white" stroke-width="4"/>
<defs>
<filter id="filter0_d_0_1" x="0" y="0" width="518" height="356" filterUnits="userSpaceOnUse" color-interpolation-filters="sRGB">
<feFlood flood-opacity="0" result="BackgroundImageFix"/>
<feColorMatrix in="SourceAlpha" type="matrix" values="0 0 0 0 0 0 0 0 0 0 0 0 0 0 0 0 0 0 127 0" result="hardAlpha"/>
<feOffset dy="12"/>
<feGaussianBlur stdDeviation="17.5"/>
<feColorMatrix type="matrix" values="0 0 0 0 0.629167 0 0 0 0 0.47377 0 0 0 0 0 0 0 0 0.2 0"/>
<feBlend mode="multiply" in2="BackgroundImageFix" result="effect1_dropShadow_0_1"/>
<feBlend mode="normal" in="SourceGraphic" in2="effect1_dropShadow_0_1" result="shape"/>
</filter>
<linearGradient id="paint0_linear_0_1" x1="477.176" y1="29.9166" x2="26.5693" y2="237.959" gradientUnits="userSpaceOnUse">
<stop stop-color="#FFC000"/>
<stop offset="1" stop-color="#FF8A00"/>
</linearGradient>
<linearGradient id="paint1_linear_0_1" x1="477.176" y1="29.9166" x2="26.5693" y2="237.959" gradientUnits="userSpaceOnUse">
<stop stop-color="#FFC000"/>
<stop offset="1" stop-color="#FF8A00"/>
</linearGradient>
<linearGradient id="paint2_linear_0_1" x1="513.695" y1="197.82" x2="42.872" y2="436.486" gradientUnits="userSpaceOnUse">
<stop stop-color="#FF8A00"/>
<stop offset="1" stop-color="#FF5100"/>
</linearGradient>
<linearGradient id="paint3_linear_0_1" x1="439.454" y1="118.016" x2="392.301" y2="131.914" gradientUnits="userSpaceOnUse">
<stop stop-color="#FF9300"/>
<stop offset="1" stop-color="#FF8000"/>
</linearGradient>
</defs>
</svg>
